<svg width="694" height="615" viewBox="0 0 694 615" fill="none" xmlns="http://www.w3.org/2000/svg">
<path d="M145.842 149.518C145.842 149.518 149.083 124.432 172.103 115.809C195.123 107.186 214.726 123.714 237.746 115.09C260.767 106.467 264.686 81.1274 287.706 72.5042C310.726 63.8809 330.33 80.4089 353.35 71.7857C376.37 63.1624 365.161 43.49 403.31 29.1994C441.459 14.9088 478.203 16.2214 478.203 16.2214" stroke="#F89D24" stroke-opacity="0.2" stroke-width="4" stroke-linecap="round"/>
<path d="M6.59931 336.1C6.59931 336.1 32.372 333.179 48.8514 310.16C65.3307 287.142 81.4142 324.676 97.1711 318.784C112.928 312.893 115.551 295.365 131.308 289.473C147.064 283.582 160.543 295.09 176.3 289.199C192.057 283.308 180.997 260.753 207.11 250.99C233.222 241.227 232.644 260.573 256.937 257.172" stroke="#F89D24" stroke-opacity="0.2" stroke-width="2" stroke-linecap="round" stroke-dasharray="2 10"/>
<path d="M103.143 463.687C130.489 453.018 125.677 510.801 143.053 514.25C160.43 517.7 171.18 486.878 188.557 490.327C205.933 493.776 211.794 510.742 229.17 514.191C246.547 517.64 246.767 494.11 277.669 498.33" stroke="#F89D24" stroke-opacity="0.2" stroke-width="4" stroke-linecap="round" stroke-dasharray="8 8"/>
<path d="M458.102 75.1392C487.394 73.2465 465.319 126.863 480.836 135.41C496.354 143.957 515.929 117.834 531.446 126.381C546.964 134.928 547.415 152.871 562.932 161.418C578.45 169.965 585.782 147.604 613.957 160.98" stroke="#F89D24" stroke-opacity="0.2" stroke-width="4" stroke-linecap="round" stroke-dasharray="8 8"/>
<path d="M623.321 614.106L627.239 573.908L657.799 547.501L661.717 507.303L692.277 480.896" stroke="#F89D24" stroke-opacity="0.2" stroke-width="2" stroke-dasharray="6 6"/>
<path d="M470.339 355.586L469.926 355.867L470.045 356.041L470.251 356.078L470.339 355.586ZM512.509 382.451L512.096 382.732L512.214 382.906L512.421 382.943L512.509 382.451ZM428.17 328.721L427.757 329.002L427.875 329.176L428.082 329.213L428.17 328.721ZM413.148 306.701L413.561 306.419L413.443 306.246L413.236 306.209L413.148 306.701ZM497.487 360.431L497.9 360.149L497.782 359.976L497.575 359.939L497.487 360.431ZM539.657 387.296L540.07 387.014L539.952 386.841L539.745 386.804L539.657 387.296ZM455.318 333.566L455.731 333.284L455.612 333.111L455.406 333.074L455.318 333.566ZM386.415 302.438C386.687 302.486 386.946 302.305 386.995 302.033C387.044 301.761 386.862 301.502 386.591 301.453L386.415 302.438ZM394.635 302.889C394.363 302.84 394.103 303.021 394.054 303.293C394.006 303.565 394.187 303.825 394.459 303.873L394.635 302.889ZM395.464 304.053C395.736 304.101 395.996 303.92 396.044 303.648C396.093 303.377 395.912 303.117 395.64 303.068L395.464 304.053ZM403.684 304.504C403.412 304.455 403.152 304.637 403.104 304.908C403.055 305.18 403.236 305.44 403.508 305.488L403.684 304.504ZM404.514 305.668C404.786 305.716 405.045 305.535 405.094 305.264C405.142 304.992 404.961 304.732 404.689 304.683L404.514 305.668ZM412.733 306.119C412.461 306.071 412.202 306.252 412.153 306.524C412.105 306.795 412.286 307.055 412.558 307.104L412.733 306.119ZM413.013 307.391C413.169 307.619 413.48 307.678 413.708 307.522C413.936 307.366 413.995 307.055 413.839 306.827L413.013 307.391ZM418.29 313.351C418.135 313.123 417.823 313.065 417.595 313.22C417.367 313.376 417.308 313.687 417.464 313.915L418.29 313.351ZM418.02 314.731C418.176 314.959 418.487 315.017 418.715 314.862C418.943 314.706 419.002 314.395 418.847 314.167L418.02 314.731ZM423.297 320.691C423.142 320.463 422.831 320.404 422.602 320.56C422.374 320.716 422.316 321.027 422.471 321.255L423.297 320.691ZM423.028 322.07C423.183 322.298 423.494 322.357 423.722 322.202C423.951 322.046 424.009 321.735 423.854 321.507L423.028 322.07ZM428.304 328.031C428.149 327.803 427.838 327.744 427.61 327.9C427.382 328.055 427.323 328.366 427.478 328.595L428.304 328.031ZM428.584 329.303C428.856 329.351 429.116 329.17 429.165 328.898C429.213 328.626 429.032 328.367 428.76 328.318L428.584 329.303ZM436.804 329.754C436.532 329.705 436.273 329.886 436.224 330.158C436.175 330.43 436.357 330.69 436.628 330.738L436.804 329.754ZM437.634 330.918C437.906 330.966 438.165 330.785 438.214 330.513C438.262 330.242 438.081 329.982 437.81 329.933L437.634 330.918ZM445.853 331.369C445.582 331.32 445.322 331.502 445.273 331.773C445.225 332.045 445.406 332.305 445.678 332.353L445.853 331.369ZM446.683 332.533C446.955 332.581 447.215 332.4 447.263 332.129C447.312 331.857 447.131 331.597 446.859 331.548L446.683 332.533ZM454.903 332.984C454.631 332.936 454.371 333.117 454.323 333.389C454.274 333.66 454.455 333.92 454.727 333.969L454.903 332.984ZM455.183 334.256C455.338 334.484 455.65 334.543 455.878 334.387C456.106 334.231 456.165 333.92 456.009 333.692L455.183 334.256ZM460.46 340.216C460.304 339.988 459.993 339.93 459.765 340.085C459.537 340.241 459.478 340.552 459.634 340.78L460.46 340.216ZM460.19 341.595C460.346 341.824 460.657 341.882 460.885 341.727C461.113 341.571 461.172 341.26 461.016 341.032L460.19 341.595ZM465.467 347.556C465.311 347.328 465 347.269 464.772 347.425C464.544 347.581 464.485 347.892 464.641 348.12L465.467 347.556ZM465.197 348.935C465.353 349.163 465.664 349.222 465.892 349.067C466.12 348.911 466.179 348.6 466.023 348.372L465.197 348.935ZM470.474 354.896C470.318 354.668 470.007 354.609 469.779 354.765C469.551 354.92 469.492 355.231 469.648 355.46L470.474 354.896ZM470.754 356.168C471.026 356.216 471.286 356.035 471.334 355.763C471.383 355.491 471.202 355.232 470.93 355.183L470.754 356.168ZM478.974 356.619C478.702 356.57 478.442 356.751 478.394 357.023C478.345 357.295 478.526 357.555 478.798 357.603L478.974 356.619ZM479.803 357.783C480.075 357.831 480.335 357.65 480.384 357.378C480.432 357.107 480.251 356.847 479.979 356.798L479.803 357.783ZM488.023 358.234C487.751 358.185 487.491 358.367 487.443 358.638C487.394 358.91 487.575 359.17 487.847 359.218L488.023 358.234ZM488.853 359.398C489.125 359.446 489.384 359.265 489.433 358.994C489.481 358.722 489.3 358.462 489.029 358.413L488.853 359.398ZM497.072 359.849C496.801 359.801 496.541 359.982 496.492 360.254C496.444 360.525 496.625 360.785 496.897 360.834L497.072 359.849ZM497.352 361.121C497.508 361.349 497.819 361.408 498.047 361.252C498.275 361.096 498.334 360.785 498.179 360.557L497.352 361.121ZM502.629 367.081C502.474 366.853 502.163 366.795 501.935 366.95C501.706 367.106 501.648 367.417 501.803 367.645L502.629 367.081ZM502.36 368.46C502.515 368.689 502.826 368.747 503.054 368.592C503.283 368.436 503.341 368.125 503.186 367.897L502.36 368.46ZM507.636 374.421C507.481 374.193 507.17 374.134 506.942 374.29C506.714 374.446 506.655 374.757 506.81 374.985L507.636 374.421ZM507.367 375.8C507.522 376.028 507.833 376.087 508.062 375.932C508.29 375.776 508.348 375.465 508.193 375.237L507.367 375.8ZM512.644 381.761C512.488 381.533 512.177 381.474 511.949 381.63C511.721 381.785 511.662 382.096 511.818 382.325L512.644 381.761ZM512.924 383.033C513.195 383.081 513.455 382.9 513.504 382.628C513.552 382.356 513.371 382.097 513.099 382.048L512.924 383.033ZM521.143 383.484C520.871 383.435 520.612 383.616 520.563 383.888C520.515 384.16 520.696 384.42 520.968 384.468L521.143 383.484ZM521.973 384.648C522.245 384.696 522.505 384.515 522.553 384.243C522.602 383.971 522.421 383.712 522.149 383.663L521.973 384.648ZM530.193 385.099C529.921 385.05 529.661 385.231 529.613 385.503C529.564 385.775 529.745 386.035 530.017 386.083L530.193 385.099ZM531.022 386.263C531.294 386.311 531.554 386.13 531.602 385.859C531.651 385.587 531.47 385.327 531.198 385.278L531.022 386.263ZM539.242 386.714C538.97 386.666 538.71 386.847 538.662 387.119C538.613 387.39 538.794 387.65 539.066 387.699L539.242 386.714ZM539.522 387.986C539.678 388.214 539.989 388.273 540.217 388.117C540.445 387.961 540.504 387.65 540.348 387.422L539.522 387.986ZM544.799 393.946C544.643 393.718 544.332 393.659 544.104 393.815C543.876 393.971 543.817 394.282 543.973 394.51L544.799 393.946ZM544.529 395.325C544.685 395.554 544.996 395.612 545.224 395.457C545.452 395.301 545.511 394.99 545.355 394.762L544.529 395.325ZM549.806 401.286C549.65 401.058 549.339 400.999 549.111 401.155C548.883 401.311 548.824 401.622 548.98 401.85L549.806 401.286ZM549.536 402.665C549.692 402.893 550.003 402.952 550.231 402.797C550.459 402.641 550.518 402.33 550.362 402.102L549.536 402.665ZM554.813 408.626C554.658 408.398 554.346 408.339 554.118 408.495C553.89 408.65 553.831 408.961 553.987 409.19L554.813 408.626ZM385.912 302.348L386.415 302.438L386.591 301.453L386.088 301.363L385.912 302.348ZM394.459 303.873L395.464 304.053L395.64 303.068L394.635 302.889L394.459 303.873ZM403.508 305.488L404.514 305.668L404.689 304.683L403.684 304.504L403.508 305.488ZM412.558 307.104L413.06 307.193L413.236 306.209L412.733 306.119L412.558 307.104ZM412.735 306.983L413.013 307.391L413.839 306.827L413.561 306.419L412.735 306.983ZM417.464 313.915L418.02 314.731L418.847 314.167L418.29 313.351L417.464 313.915ZM422.471 321.255L423.028 322.07L423.854 321.507L423.297 320.691L422.471 321.255ZM427.478 328.595L427.757 329.002L428.583 328.439L428.304 328.031L427.478 328.595ZM428.082 329.213L428.584 329.303L428.76 328.318L428.257 328.228L428.082 329.213ZM436.628 330.738L437.634 330.918L437.81 329.933L436.804 329.754L436.628 330.738ZM445.678 332.353L446.683 332.533L446.859 331.548L445.853 331.369L445.678 332.353ZM454.727 333.969L455.23 334.058L455.406 333.074L454.903 332.984L454.727 333.969ZM454.905 333.848L455.183 334.256L456.009 333.692L455.731 333.284L454.905 333.848ZM459.634 340.78L460.19 341.595L461.016 341.032L460.46 340.216L459.634 340.78ZM464.641 348.12L465.197 348.935L466.023 348.372L465.467 347.556L464.641 348.12ZM469.648 355.46L469.926 355.867L470.752 355.304L470.474 354.896L469.648 355.46ZM470.251 356.078L470.754 356.168L470.93 355.183L470.427 355.093L470.251 356.078ZM478.798 357.603L479.803 357.783L479.979 356.798L478.974 356.619L478.798 357.603ZM487.847 359.218L488.853 359.398L489.029 358.413L488.023 358.234L487.847 359.218ZM496.897 360.834L497.399 360.923L497.575 359.939L497.072 359.849L496.897 360.834ZM497.074 360.713L497.352 361.121L498.179 360.557L497.9 360.149L497.074 360.713ZM501.803 367.645L502.36 368.46L503.186 367.897L502.629 367.081L501.803 367.645ZM506.81 374.985L507.367 375.8L508.193 375.237L507.636 374.421L506.81 374.985ZM511.818 382.325L512.096 382.732L512.922 382.169L512.644 381.761L511.818 382.325ZM512.421 382.943L512.924 383.033L513.099 382.048L512.597 381.958L512.421 382.943ZM520.968 384.468L521.973 384.648L522.149 383.663L521.143 383.484L520.968 384.468ZM530.017 386.083L531.022 386.263L531.198 385.278L530.193 385.099L530.017 386.083ZM539.066 387.699L539.569 387.788L539.745 386.804L539.242 386.714L539.066 387.699ZM539.244 387.578L539.522 387.986L540.348 387.422L540.07 387.014L539.244 387.578ZM543.973 394.51L544.529 395.325L545.355 394.762L544.799 393.946L543.973 394.51ZM548.98 401.85L549.536 402.665L550.362 402.102L549.806 401.286L548.98 401.85ZM553.987 409.19L554.265 409.597L555.091 409.034L554.813 408.626L553.987 409.19Z" fill="#F89D24" fill-opacity="0.2"/>
</svg>
