<svg width="244" height="244" viewBox="0 0 244 244" fill="none" xmlns="http://www.w3.org/2000/svg">
<path d="M244 122C244 189.379 189.379 244 122 244C54.6213 244 0 189.379 0 122C0 54.6213 54.6213 0 122 0C189.379 0 244 54.6213 244 122ZM21.0264 122C21.0264 177.766 66.2338 222.974 122 222.974C177.766 222.974 222.974 177.766 222.974 122C222.974 66.2338 177.766 21.0264 122 21.0264C66.2338 21.0264 21.0264 66.2338 21.0264 122Z" fill="#DDDDDD"/>
<path d="M122 10.5132C122 4.70692 126.716 -0.047035 132.5 0.452698C144.923 1.52588 157.129 4.49915 168.687 9.2867C183.489 15.4178 196.938 24.4042 208.267 35.733C219.596 47.0617 228.582 60.5109 234.713 75.3126C239.501 86.8708 242.474 99.0769 243.547 111.5C244.047 117.284 239.293 122 233.487 122V122C227.681 122 223.03 117.281 222.427 111.506C221.417 101.847 219.018 92.3652 215.287 83.3591C210.213 71.1084 202.775 59.9771 193.399 50.6009C184.023 41.2246 172.892 33.7869 160.641 28.7125C151.635 24.9821 142.153 22.5825 132.494 21.5732C126.719 20.9697 122 16.3195 122 10.5132V10.5132Z" fill="#F89D24"/>
</svg>
