<svg width="244" height="244" viewBox="0 0 244 244" fill="none" xmlns="http://www.w3.org/2000/svg">
<path d="M244 122C244 189.379 189.379 244 122 244C54.6213 244 0 189.379 0 122C0 54.6213 54.6213 0 122 0C189.379 0 244 54.6213 244 122ZM21.0264 122C21.0264 177.766 66.2338 222.974 122 222.974C177.766 222.974 222.974 177.766 222.974 122C222.974 66.2338 177.766 21.0264 122 21.0264C66.2338 21.0264 21.0264 66.2338 21.0264 122Z" fill="#DDDDDD"/>
<path d="M122 10.5132C122 4.70692 126.716 -0.0470904 132.5 0.452551C156.955 2.56478 180.296 12.0177 199.396 27.6927C221.214 45.5987 236.149 70.516 241.656 98.199C247.162 125.882 242.9 154.618 229.594 179.51C216.289 204.403 194.764 223.912 168.687 234.713C142.611 245.515 113.595 246.94 86.5852 238.747C59.5753 230.553 36.2418 213.248 20.5607 189.78C4.87953 166.311 -2.17911 138.131 0.587467 110.042C3.00934 85.4522 12.8295 62.2636 28.6281 43.4779C32.3652 39.0341 39.0613 39.0612 43.1669 43.1669V43.1669C47.2726 47.2726 47.2234 53.8981 43.5666 58.4082C31.1665 73.702 23.4574 92.3566 21.5126 112.103C19.2228 135.351 25.0649 158.674 38.0435 178.098C51.022 197.522 70.334 211.844 92.6889 218.626C115.044 225.407 139.058 224.227 160.641 215.287C182.223 206.348 200.039 190.201 211.051 169.599C222.063 148.996 225.591 125.213 221.033 102.301C216.476 79.3891 204.115 58.7663 186.057 43.9463C170.719 31.3589 152.077 23.6192 132.495 21.5731C126.72 20.9697 122 16.3195 122 10.5132V10.5132Z" fill="#F89D24"/>
</svg>
