<svg width="244" height="244" viewBox="0 0 244 244" fill="none" xmlns="http://www.w3.org/2000/svg">
<path d="M244 122C244 189.379 189.379 244 122 244C54.6213 244 0 189.379 0 122C0 54.6213 54.6213 0 122 0C189.379 0 244 54.6213 244 122ZM21.0264 122C21.0264 177.766 66.2338 222.974 122 222.974C177.766 222.974 222.974 177.766 222.974 122C222.974 66.2338 177.766 21.0264 122 21.0264C66.2338 21.0264 21.0264 66.2338 21.0264 122Z" fill="#DDDDDD"/>
<path d="M122 10.5132C122 4.70692 126.716 -0.0470553 132.501 0.452657C152.926 2.21712 172.639 9.10787 189.78 20.5607C209.842 33.9662 225.479 53.02 234.713 75.3126C243.947 97.6052 246.363 122.135 241.656 145.801C236.948 169.467 225.329 191.205 208.267 208.267C191.205 225.329 169.467 236.948 145.801 241.656C122.135 246.363 97.6052 243.947 75.3126 234.713C53.02 225.479 33.9662 209.842 20.5607 189.78C9.10787 172.639 2.21712 152.926 0.452656 132.501C-0.0470555 126.716 4.70692 122 10.5132 122V122C16.3195 122 20.9697 126.72 21.5732 132.495C23.2724 148.755 28.9021 164.417 38.0435 178.098C49.1386 194.703 64.9086 207.645 83.3591 215.287C101.81 222.93 122.112 224.93 141.699 221.033C161.286 217.137 179.278 207.521 193.399 193.399C207.521 179.278 217.137 161.286 221.033 141.699C224.93 122.112 222.93 101.81 215.287 83.3591C207.645 64.9086 194.703 49.1386 178.098 38.0435C164.417 28.9021 148.755 23.2724 132.495 21.5732C126.72 20.9697 122 16.3195 122 10.5132V10.5132Z" fill="#F89D24"/>
</svg>
