<svg width="361" height="396" viewBox="0 0 361 396" fill="none" xmlns="http://www.w3.org/2000/svg">
<path d="M2 31C2 31 13.802 2 38.3155 2C62.829 2 75.3538 31 99.8672 31C124.381 31 136.905 2 161.419 2C185.932 2 198.457 31 222.971 31C247.484 31 243.898 2 284.522 2C325.147 2 359 20.3158 359 20.3158" stroke="#F0A003" stroke-opacity="0.49" stroke-width="4" stroke-linecap="round"/>
<path d="M13.5993 208.1C13.5993 208.1 39.372 205.179 55.8514 182.16C72.3307 159.142 88.4142 196.676 104.171 190.784C119.928 184.893 122.551 167.365 138.308 161.473C154.064 155.582 167.543 167.09 183.3 161.199C199.057 155.308 187.997 132.753 214.11 122.99C240.222 113.227 239.644 132.573 263.937 129.172" stroke="#F0A003" stroke-opacity="0.49" stroke-width="2" stroke-linecap="round" stroke-dasharray="2 10"/>
<path d="M24.1434 317.687C51.4889 307.018 46.6767 364.801 64.0533 368.25C81.4299 371.7 92.1801 340.878 109.557 344.327C126.933 347.776 132.794 364.742 150.17 368.191C167.547 371.64 167.767 348.11 198.669 352.33" stroke="#F0A003" stroke-opacity="0.49" stroke-width="4" stroke-linecap="round" stroke-dasharray="8 8"/>
<path d="M359 246L344 208.5L359 171L344 133.5L359 96" stroke="#F0A003" stroke-opacity="0.49" stroke-width="2" stroke-dasharray="6 6"/>
<path d="M262.339 309.586L261.926 309.867L262.045 310.041L262.251 310.078L262.339 309.586ZM304.509 336.451L304.096 336.732L304.214 336.906L304.421 336.943L304.509 336.451ZM220.17 282.721L219.757 283.002L219.875 283.176L220.082 283.213L220.17 282.721ZM205.148 260.701L205.561 260.419L205.443 260.246L205.236 260.209L205.148 260.701ZM289.487 314.431L289.9 314.149L289.782 313.976L289.575 313.939L289.487 314.431ZM331.657 341.296L332.07 341.014L331.952 340.841L331.745 340.804L331.657 341.296ZM247.318 287.566L247.731 287.284L247.612 287.111L247.406 287.074L247.318 287.566ZM178.415 256.438C178.687 256.486 178.946 256.305 178.995 256.033C179.044 255.761 178.862 255.502 178.591 255.453L178.415 256.438ZM186.635 256.889C186.363 256.84 186.103 257.021 186.054 257.293C186.006 257.565 186.187 257.825 186.459 257.873L186.635 256.889ZM187.464 258.053C187.736 258.101 187.996 257.92 188.044 257.648C188.093 257.377 187.912 257.117 187.64 257.068L187.464 258.053ZM195.684 258.504C195.412 258.455 195.152 258.637 195.104 258.908C195.055 259.18 195.236 259.44 195.508 259.488L195.684 258.504ZM196.514 259.668C196.786 259.716 197.045 259.535 197.094 259.264C197.142 258.992 196.961 258.732 196.689 258.683L196.514 259.668ZM204.733 260.119C204.461 260.071 204.202 260.252 204.153 260.524C204.105 260.795 204.286 261.055 204.558 261.104L204.733 260.119ZM205.013 261.391C205.169 261.619 205.48 261.678 205.708 261.522C205.936 261.366 205.995 261.055 205.839 260.827L205.013 261.391ZM210.29 267.351C210.135 267.123 209.823 267.065 209.595 267.22C209.367 267.376 209.308 267.687 209.464 267.915L210.29 267.351ZM210.02 268.731C210.176 268.959 210.487 269.017 210.715 268.862C210.943 268.706 211.002 268.395 210.847 268.167L210.02 268.731ZM215.297 274.691C215.142 274.463 214.831 274.404 214.602 274.56C214.374 274.716 214.316 275.027 214.471 275.255L215.297 274.691ZM215.028 276.07C215.183 276.298 215.494 276.357 215.722 276.202C215.951 276.046 216.009 275.735 215.854 275.507L215.028 276.07ZM220.304 282.031C220.149 281.803 219.838 281.744 219.61 281.9C219.382 282.055 219.323 282.366 219.478 282.595L220.304 282.031ZM220.584 283.303C220.856 283.351 221.116 283.17 221.165 282.898C221.213 282.626 221.032 282.367 220.76 282.318L220.584 283.303ZM228.804 283.754C228.532 283.705 228.273 283.886 228.224 284.158C228.175 284.43 228.357 284.69 228.628 284.738L228.804 283.754ZM229.634 284.918C229.906 284.966 230.165 284.785 230.214 284.513C230.262 284.242 230.081 283.982 229.81 283.933L229.634 284.918ZM237.853 285.369C237.582 285.32 237.322 285.502 237.273 285.773C237.225 286.045 237.406 286.305 237.678 286.353L237.853 285.369ZM238.683 286.533C238.955 286.581 239.215 286.4 239.263 286.129C239.312 285.857 239.131 285.597 238.859 285.548L238.683 286.533ZM246.903 286.984C246.631 286.936 246.371 287.117 246.323 287.389C246.274 287.66 246.455 287.92 246.727 287.969L246.903 286.984ZM247.183 288.256C247.338 288.484 247.65 288.543 247.878 288.387C248.106 288.231 248.165 287.92 248.009 287.692L247.183 288.256ZM252.46 294.216C252.304 293.988 251.993 293.93 251.765 294.085C251.537 294.241 251.478 294.552 251.634 294.78L252.46 294.216ZM252.19 295.595C252.346 295.824 252.657 295.882 252.885 295.727C253.113 295.571 253.172 295.26 253.016 295.032L252.19 295.595ZM257.467 301.556C257.311 301.328 257 301.269 256.772 301.425C256.544 301.581 256.485 301.892 256.641 302.12L257.467 301.556ZM257.197 302.935C257.353 303.163 257.664 303.222 257.892 303.067C258.12 302.911 258.179 302.6 258.023 302.372L257.197 302.935ZM262.474 308.896C262.318 308.668 262.007 308.609 261.779 308.765C261.551 308.92 261.492 309.231 261.648 309.46L262.474 308.896ZM262.754 310.168C263.026 310.216 263.286 310.035 263.334 309.763C263.383 309.491 263.202 309.232 262.93 309.183L262.754 310.168ZM270.974 310.619C270.702 310.57 270.442 310.751 270.394 311.023C270.345 311.295 270.526 311.555 270.798 311.603L270.974 310.619ZM271.803 311.783C272.075 311.831 272.335 311.65 272.384 311.378C272.432 311.107 272.251 310.847 271.979 310.798L271.803 311.783ZM280.023 312.234C279.751 312.185 279.491 312.367 279.443 312.638C279.394 312.91 279.575 313.17 279.847 313.218L280.023 312.234ZM280.853 313.398C281.125 313.446 281.384 313.265 281.433 312.994C281.481 312.722 281.3 312.462 281.029 312.413L280.853 313.398ZM289.072 313.849C288.801 313.801 288.541 313.982 288.492 314.254C288.444 314.525 288.625 314.785 288.897 314.834L289.072 313.849ZM289.352 315.121C289.508 315.349 289.819 315.408 290.047 315.252C290.275 315.096 290.334 314.785 290.179 314.557L289.352 315.121ZM294.629 321.081C294.474 320.853 294.163 320.795 293.935 320.95C293.706 321.106 293.648 321.417 293.803 321.645L294.629 321.081ZM294.36 322.46C294.515 322.689 294.826 322.747 295.054 322.592C295.283 322.436 295.341 322.125 295.186 321.897L294.36 322.46ZM299.636 328.421C299.481 328.193 299.17 328.134 298.942 328.29C298.714 328.446 298.655 328.757 298.81 328.985L299.636 328.421ZM299.367 329.8C299.522 330.028 299.833 330.087 300.062 329.932C300.29 329.776 300.348 329.465 300.193 329.237L299.367 329.8ZM304.644 335.761C304.488 335.533 304.177 335.474 303.949 335.63C303.721 335.785 303.662 336.096 303.818 336.325L304.644 335.761ZM304.924 337.033C305.195 337.081 305.455 336.9 305.504 336.628C305.552 336.356 305.371 336.097 305.099 336.048L304.924 337.033ZM313.143 337.484C312.871 337.435 312.612 337.616 312.563 337.888C312.515 338.16 312.696 338.42 312.968 338.468L313.143 337.484ZM313.973 338.648C314.245 338.696 314.505 338.515 314.553 338.243C314.602 337.971 314.421 337.712 314.149 337.663L313.973 338.648ZM322.193 339.099C321.921 339.05 321.661 339.231 321.613 339.503C321.564 339.775 321.745 340.035 322.017 340.083L322.193 339.099ZM323.022 340.263C323.294 340.311 323.554 340.13 323.602 339.859C323.651 339.587 323.47 339.327 323.198 339.278L323.022 340.263ZM331.242 340.714C330.97 340.666 330.71 340.847 330.662 341.119C330.613 341.39 330.794 341.65 331.066 341.699L331.242 340.714ZM331.522 341.986C331.678 342.214 331.989 342.273 332.217 342.117C332.445 341.961 332.504 341.65 332.348 341.422L331.522 341.986ZM336.799 347.946C336.643 347.718 336.332 347.659 336.104 347.815C335.876 347.971 335.817 348.282 335.973 348.51L336.799 347.946ZM336.529 349.325C336.685 349.554 336.996 349.612 337.224 349.457C337.452 349.301 337.511 348.99 337.355 348.762L336.529 349.325ZM341.806 355.286C341.65 355.058 341.339 354.999 341.111 355.155C340.883 355.311 340.824 355.622 340.98 355.85L341.806 355.286ZM341.536 356.665C341.692 356.893 342.003 356.952 342.231 356.797C342.459 356.641 342.518 356.33 342.362 356.102L341.536 356.665ZM346.813 362.626C346.658 362.398 346.347 362.339 346.118 362.495C345.89 362.65 345.831 362.961 345.987 363.19L346.813 362.626ZM177.912 256.348L178.415 256.438L178.591 255.453L178.088 255.363L177.912 256.348ZM186.459 257.873L187.464 258.053L187.64 257.068L186.635 256.889L186.459 257.873ZM195.508 259.488L196.514 259.668L196.689 258.683L195.684 258.504L195.508 259.488ZM204.558 261.104L205.06 261.193L205.236 260.209L204.733 260.119L204.558 261.104ZM204.735 260.983L205.013 261.391L205.839 260.827L205.561 260.419L204.735 260.983ZM209.464 267.915L210.02 268.731L210.847 268.167L210.29 267.351L209.464 267.915ZM214.471 275.255L215.028 276.07L215.854 275.507L215.297 274.691L214.471 275.255ZM219.478 282.595L219.757 283.002L220.583 282.439L220.304 282.031L219.478 282.595ZM220.082 283.213L220.584 283.303L220.76 282.318L220.257 282.228L220.082 283.213ZM228.628 284.738L229.634 284.918L229.81 283.933L228.804 283.754L228.628 284.738ZM237.678 286.353L238.683 286.533L238.859 285.548L237.853 285.369L237.678 286.353ZM246.727 287.969L247.23 288.058L247.406 287.074L246.903 286.984L246.727 287.969ZM246.905 287.848L247.183 288.256L248.009 287.692L247.731 287.284L246.905 287.848ZM251.634 294.78L252.19 295.595L253.016 295.032L252.46 294.216L251.634 294.78ZM256.641 302.12L257.197 302.935L258.023 302.372L257.467 301.556L256.641 302.12ZM261.648 309.46L261.926 309.867L262.752 309.304L262.474 308.896L261.648 309.46ZM262.251 310.078L262.754 310.168L262.93 309.183L262.427 309.093L262.251 310.078ZM270.798 311.603L271.803 311.783L271.979 310.798L270.974 310.619L270.798 311.603ZM279.847 313.218L280.853 313.398L281.029 312.413L280.023 312.234L279.847 313.218ZM288.897 314.834L289.399 314.923L289.575 313.939L289.072 313.849L288.897 314.834ZM289.074 314.713L289.352 315.121L290.179 314.557L289.9 314.149L289.074 314.713ZM293.803 321.645L294.36 322.46L295.186 321.897L294.629 321.081L293.803 321.645ZM298.81 328.985L299.367 329.8L300.193 329.237L299.636 328.421L298.81 328.985ZM303.818 336.325L304.096 336.732L304.922 336.169L304.644 335.761L303.818 336.325ZM304.421 336.943L304.924 337.033L305.099 336.048L304.597 335.958L304.421 336.943ZM312.968 338.468L313.973 338.648L314.149 337.663L313.143 337.484L312.968 338.468ZM322.017 340.083L323.022 340.263L323.198 339.278L322.193 339.099L322.017 340.083ZM331.066 341.699L331.569 341.788L331.745 340.804L331.242 340.714L331.066 341.699ZM331.244 341.578L331.522 341.986L332.348 341.422L332.07 341.014L331.244 341.578ZM335.973 348.51L336.529 349.325L337.355 348.762L336.799 347.946L335.973 348.51ZM340.98 355.85L341.536 356.665L342.362 356.102L341.806 355.286L340.98 355.85ZM345.987 363.19L346.265 363.597L347.091 363.034L346.813 362.626L345.987 363.19Z" fill="#F0A003" fill-opacity="0.49"/>
</svg>
