<svg width="442" height="438" viewBox="0 0 442 438" fill="none" xmlns="http://www.w3.org/2000/svg">
<path d="M26.9999 31C26.9999 31 38.8019 2 63.3154 2C87.8289 2 100.354 31 124.867 31C149.381 31 161.905 2 186.419 2C210.932 2 223.457 31 247.971 31C272.484 31 268.898 2 309.522 2C350.146 2 384 20.3158 384 20.3158" stroke="#F89D24" stroke-opacity="0.2" stroke-width="4" stroke-linecap="round"/>
<path d="M6.59931 218.1C6.59931 218.1 32.372 215.179 48.8514 192.16C65.3307 169.142 81.4142 206.676 97.1711 200.784C112.928 194.893 115.551 177.365 131.308 171.473C147.064 165.582 160.543 177.09 176.3 171.199C192.057 165.308 180.997 142.753 207.11 132.99C233.222 123.227 232.644 142.573 256.937 139.172" stroke="#F89D24" stroke-opacity="0.2" stroke-width="2" stroke-linecap="round" stroke-dasharray="2 10"/>
<path d="M12.1434 359.687C39.4889 349.018 34.6767 406.801 52.0533 410.25C69.4299 413.7 80.1801 382.878 97.5567 386.327C114.933 389.776 120.794 406.742 138.17 410.191C155.547 413.64 155.767 390.11 186.669 394.33" stroke="#F89D24" stroke-opacity="0.2" stroke-width="4" stroke-linecap="round" stroke-dasharray="8 8"/>
<path d="M440 254L425 216.5L440 179L425 141.5L440 104" stroke="#F89D24" stroke-opacity="0.2" stroke-width="2" stroke-dasharray="6 6"/>
<path d="M342.339 366.586L341.926 366.867L342.045 367.041L342.251 367.078L342.339 366.586ZM384.509 393.451L384.096 393.732L384.214 393.906L384.421 393.943L384.509 393.451ZM300.17 339.721L299.757 340.002L299.875 340.176L300.082 340.213L300.17 339.721ZM285.148 317.701L285.561 317.419L285.443 317.246L285.236 317.209L285.148 317.701ZM369.487 371.431L369.9 371.149L369.782 370.976L369.575 370.939L369.487 371.431ZM411.657 398.296L412.07 398.014L411.952 397.841L411.745 397.804L411.657 398.296ZM327.318 344.566L327.731 344.284L327.612 344.111L327.406 344.074L327.318 344.566ZM258.415 313.438C258.687 313.486 258.946 313.305 258.995 313.033C259.044 312.761 258.862 312.502 258.591 312.453L258.415 313.438ZM266.635 313.889C266.363 313.84 266.103 314.021 266.054 314.293C266.006 314.565 266.187 314.825 266.459 314.873L266.635 313.889ZM267.464 315.053C267.736 315.101 267.996 314.92 268.044 314.648C268.093 314.377 267.912 314.117 267.64 314.068L267.464 315.053ZM275.684 315.504C275.412 315.455 275.152 315.637 275.104 315.908C275.055 316.18 275.236 316.44 275.508 316.488L275.684 315.504ZM276.514 316.668C276.786 316.716 277.045 316.535 277.094 316.264C277.142 315.992 276.961 315.732 276.689 315.683L276.514 316.668ZM284.733 317.119C284.461 317.071 284.202 317.252 284.153 317.524C284.105 317.795 284.286 318.055 284.558 318.104L284.733 317.119ZM285.013 318.391C285.169 318.619 285.48 318.678 285.708 318.522C285.936 318.366 285.995 318.055 285.839 317.827L285.013 318.391ZM290.29 324.351C290.135 324.123 289.823 324.065 289.595 324.22C289.367 324.376 289.308 324.687 289.464 324.915L290.29 324.351ZM290.02 325.731C290.176 325.959 290.487 326.017 290.715 325.862C290.943 325.706 291.002 325.395 290.847 325.167L290.02 325.731ZM295.297 331.691C295.142 331.463 294.831 331.404 294.602 331.56C294.374 331.716 294.316 332.027 294.471 332.255L295.297 331.691ZM295.028 333.07C295.183 333.298 295.494 333.357 295.722 333.202C295.951 333.046 296.009 332.735 295.854 332.507L295.028 333.07ZM300.304 339.031C300.149 338.803 299.838 338.744 299.61 338.9C299.382 339.055 299.323 339.366 299.478 339.595L300.304 339.031ZM300.584 340.303C300.856 340.351 301.116 340.17 301.165 339.898C301.213 339.626 301.032 339.367 300.76 339.318L300.584 340.303ZM308.804 340.754C308.532 340.705 308.273 340.886 308.224 341.158C308.175 341.43 308.357 341.69 308.628 341.738L308.804 340.754ZM309.634 341.918C309.906 341.966 310.165 341.785 310.214 341.513C310.262 341.242 310.081 340.982 309.81 340.933L309.634 341.918ZM317.853 342.369C317.582 342.32 317.322 342.502 317.273 342.773C317.225 343.045 317.406 343.305 317.678 343.353L317.853 342.369ZM318.683 343.533C318.955 343.581 319.215 343.4 319.263 343.129C319.312 342.857 319.131 342.597 318.859 342.548L318.683 343.533ZM326.903 343.984C326.631 343.936 326.371 344.117 326.323 344.389C326.274 344.66 326.455 344.92 326.727 344.969L326.903 343.984ZM327.183 345.256C327.338 345.484 327.65 345.543 327.878 345.387C328.106 345.231 328.165 344.92 328.009 344.692L327.183 345.256ZM332.46 351.216C332.304 350.988 331.993 350.93 331.765 351.085C331.537 351.241 331.478 351.552 331.634 351.78L332.46 351.216ZM332.19 352.595C332.346 352.824 332.657 352.882 332.885 352.727C333.113 352.571 333.172 352.26 333.016 352.032L332.19 352.595ZM337.467 358.556C337.311 358.328 337 358.269 336.772 358.425C336.544 358.581 336.485 358.892 336.641 359.12L337.467 358.556ZM337.197 359.935C337.353 360.163 337.664 360.222 337.892 360.067C338.12 359.911 338.179 359.6 338.023 359.372L337.197 359.935ZM342.474 365.896C342.318 365.668 342.007 365.609 341.779 365.765C341.551 365.92 341.492 366.231 341.648 366.46L342.474 365.896ZM342.754 367.168C343.026 367.216 343.286 367.035 343.334 366.763C343.383 366.491 343.202 366.232 342.93 366.183L342.754 367.168ZM350.974 367.619C350.702 367.57 350.442 367.751 350.394 368.023C350.345 368.295 350.526 368.555 350.798 368.603L350.974 367.619ZM351.803 368.783C352.075 368.831 352.335 368.65 352.384 368.378C352.432 368.107 352.251 367.847 351.979 367.798L351.803 368.783ZM360.023 369.234C359.751 369.185 359.491 369.367 359.443 369.638C359.394 369.91 359.575 370.17 359.847 370.218L360.023 369.234ZM360.853 370.398C361.125 370.446 361.384 370.265 361.433 369.994C361.481 369.722 361.3 369.462 361.029 369.413L360.853 370.398ZM369.072 370.849C368.801 370.801 368.541 370.982 368.492 371.254C368.444 371.525 368.625 371.785 368.897 371.834L369.072 370.849ZM369.352 372.121C369.508 372.349 369.819 372.408 370.047 372.252C370.275 372.096 370.334 371.785 370.179 371.557L369.352 372.121ZM374.629 378.081C374.474 377.853 374.163 377.795 373.935 377.95C373.706 378.106 373.648 378.417 373.803 378.645L374.629 378.081ZM374.36 379.46C374.515 379.689 374.826 379.747 375.054 379.592C375.283 379.436 375.341 379.125 375.186 378.897L374.36 379.46ZM379.636 385.421C379.481 385.193 379.17 385.134 378.942 385.29C378.714 385.446 378.655 385.757 378.81 385.985L379.636 385.421ZM379.367 386.8C379.522 387.028 379.833 387.087 380.062 386.932C380.29 386.776 380.348 386.465 380.193 386.237L379.367 386.8ZM384.644 392.761C384.488 392.533 384.177 392.474 383.949 392.63C383.721 392.785 383.662 393.096 383.818 393.325L384.644 392.761ZM384.924 394.033C385.195 394.081 385.455 393.9 385.504 393.628C385.552 393.356 385.371 393.097 385.099 393.048L384.924 394.033ZM393.143 394.484C392.871 394.435 392.612 394.616 392.563 394.888C392.515 395.16 392.696 395.42 392.968 395.468L393.143 394.484ZM393.973 395.648C394.245 395.696 394.505 395.515 394.553 395.243C394.602 394.971 394.421 394.712 394.149 394.663L393.973 395.648ZM402.193 396.099C401.921 396.05 401.661 396.231 401.613 396.503C401.564 396.775 401.745 397.035 402.017 397.083L402.193 396.099ZM403.022 397.263C403.294 397.311 403.554 397.13 403.602 396.859C403.651 396.587 403.47 396.327 403.198 396.278L403.022 397.263ZM411.242 397.714C410.97 397.666 410.71 397.847 410.662 398.119C410.613 398.39 410.794 398.65 411.066 398.699L411.242 397.714ZM411.522 398.986C411.678 399.214 411.989 399.273 412.217 399.117C412.445 398.961 412.504 398.65 412.348 398.422L411.522 398.986ZM416.799 404.946C416.643 404.718 416.332 404.659 416.104 404.815C415.876 404.971 415.817 405.282 415.973 405.51L416.799 404.946ZM416.529 406.325C416.685 406.554 416.996 406.612 417.224 406.457C417.452 406.301 417.511 405.99 417.355 405.762L416.529 406.325ZM421.806 412.286C421.65 412.058 421.339 411.999 421.111 412.155C420.883 412.311 420.824 412.622 420.98 412.85L421.806 412.286ZM421.536 413.665C421.692 413.893 422.003 413.952 422.231 413.797C422.459 413.641 422.518 413.33 422.362 413.102L421.536 413.665ZM426.813 419.626C426.658 419.398 426.346 419.339 426.118 419.495C425.89 419.65 425.831 419.961 425.987 420.19L426.813 419.626ZM257.912 313.348L258.415 313.438L258.591 312.453L258.088 312.363L257.912 313.348ZM266.459 314.873L267.464 315.053L267.64 314.068L266.635 313.889L266.459 314.873ZM275.508 316.488L276.514 316.668L276.689 315.683L275.684 315.504L275.508 316.488ZM284.558 318.104L285.06 318.193L285.236 317.209L284.733 317.119L284.558 318.104ZM284.735 317.983L285.013 318.391L285.839 317.827L285.561 317.419L284.735 317.983ZM289.464 324.915L290.02 325.731L290.847 325.167L290.29 324.351L289.464 324.915ZM294.471 332.255L295.028 333.07L295.854 332.507L295.297 331.691L294.471 332.255ZM299.478 339.595L299.757 340.002L300.583 339.439L300.304 339.031L299.478 339.595ZM300.082 340.213L300.584 340.303L300.76 339.318L300.257 339.228L300.082 340.213ZM308.628 341.738L309.634 341.918L309.81 340.933L308.804 340.754L308.628 341.738ZM317.678 343.353L318.683 343.533L318.859 342.548L317.853 342.369L317.678 343.353ZM326.727 344.969L327.23 345.058L327.406 344.074L326.903 343.984L326.727 344.969ZM326.905 344.848L327.183 345.256L328.009 344.692L327.731 344.284L326.905 344.848ZM331.634 351.78L332.19 352.595L333.016 352.032L332.46 351.216L331.634 351.78ZM336.641 359.12L337.197 359.935L338.023 359.372L337.467 358.556L336.641 359.12ZM341.648 366.46L341.926 366.867L342.752 366.304L342.474 365.896L341.648 366.46ZM342.251 367.078L342.754 367.168L342.93 366.183L342.427 366.093L342.251 367.078ZM350.798 368.603L351.803 368.783L351.979 367.798L350.974 367.619L350.798 368.603ZM359.847 370.218L360.853 370.398L361.029 369.413L360.023 369.234L359.847 370.218ZM368.897 371.834L369.399 371.923L369.575 370.939L369.072 370.849L368.897 371.834ZM369.074 371.713L369.352 372.121L370.179 371.557L369.9 371.149L369.074 371.713ZM373.803 378.645L374.36 379.46L375.186 378.897L374.629 378.081L373.803 378.645ZM378.81 385.985L379.367 386.8L380.193 386.237L379.636 385.421L378.81 385.985ZM383.818 393.325L384.096 393.732L384.922 393.169L384.644 392.761L383.818 393.325ZM384.421 393.943L384.924 394.033L385.099 393.048L384.597 392.958L384.421 393.943ZM392.968 395.468L393.973 395.648L394.149 394.663L393.143 394.484L392.968 395.468ZM402.017 397.083L403.022 397.263L403.198 396.278L402.193 396.099L402.017 397.083ZM411.066 398.699L411.569 398.788L411.745 397.804L411.242 397.714L411.066 398.699ZM411.244 398.578L411.522 398.986L412.348 398.422L412.07 398.014L411.244 398.578ZM415.973 405.51L416.529 406.325L417.355 405.762L416.799 404.946L415.973 405.51ZM420.98 412.85L421.536 413.665L422.362 413.102L421.806 412.286L420.98 412.85ZM425.987 420.19L426.265 420.597L427.091 420.034L426.813 419.626L425.987 420.19Z" fill="#F89D24" fill-opacity="0.2"/>
</svg>
