<svg width="51" height="51" viewBox="0 0 51 51" fill="none" xmlns="http://www.w3.org/2000/svg">
<path d="M45.1429 0.5H5.85714C2.89955 0.5 0.5 2.89955 0.5 5.85714V45.1429C0.5 48.1004 2.89955 50.5 5.85714 50.5H45.1429C48.1004 50.5 50.5 48.1004 50.5 45.1429V5.85714C50.5 2.89955 48.1004 0.5 45.1429 0.5ZM27.7098 39.4955C27.7098 44.3616 24.8527 46.5826 20.6897 46.5826C16.9286 46.5826 14.7522 44.6406 13.6362 42.2857L17.4643 39.9754C18.2009 41.2812 18.8705 42.3862 20.4888 42.3862C22.029 42.3862 23.0112 41.7835 23.0112 39.4286V23.4576H27.7098V39.4955ZM38.8259 46.5826C34.4621 46.5826 31.6384 44.5067 30.2656 41.7835L34.0938 39.5737C35.0982 41.2143 36.4152 42.4308 38.7254 42.4308C40.6674 42.4308 41.9174 41.4598 41.9174 40.1094C41.9174 38.5022 40.6451 37.933 38.4911 36.9844L37.3192 36.4821C33.9263 35.0424 31.683 33.2232 31.683 29.3951C31.683 25.8683 34.3728 23.1897 38.558 23.1897C41.5491 23.1897 43.692 24.2277 45.2321 26.9509L41.5714 29.2946C40.7679 27.8549 39.8973 27.2857 38.5469 27.2857C37.1741 27.2857 36.3036 28.1562 36.3036 29.2946C36.3036 30.7009 37.1741 31.2701 39.1942 32.1518L40.3661 32.654C44.3616 34.3616 46.6049 36.1138 46.6049 40.0424C46.6049 44.2612 43.279 46.5826 38.8259 46.5826Z" fill="#F89D24"/>
</svg>
