<svg width="244" height="244" viewBox="0 0 244 244" fill="none" xmlns="http://www.w3.org/2000/svg">
<path d="M244 122C244 189.379 189.379 244 122 244C54.6213 244 0 189.379 0 122C0 54.6213 54.6213 0 122 0C189.379 0 244 54.6213 244 122ZM21.0264 122C21.0264 177.766 66.2338 222.974 122 222.974C177.766 222.974 222.974 177.766 222.974 122C222.974 66.2338 177.766 21.0264 122 21.0264C66.2338 21.0264 21.0264 66.2338 21.0264 122Z" fill="#DDDDDD"/>
<path d="M244 122C244 189.379 189.379 244 122 244C54.6213 244 0 189.379 0 122C0 54.6213 54.6213 0 122 0C189.379 0 244 54.6213 244 122ZM21.0264 122C21.0264 177.766 66.2338 222.974 122 222.974C177.766 222.974 222.974 177.766 222.974 122C222.974 66.2338 177.766 21.0264 122 21.0264C66.2338 21.0264 21.0264 66.2338 21.0264 122Z" fill="#F24E1E"/>
</svg>
