<svg width="51" height="51" viewBox="0 0 51 51" fill="none" xmlns="http://www.w3.org/2000/svg">
<path d="M41.3398 16.7031C40.8125 16.5022 40.2852 16.3125 39.7578 16.1339C39.8457 15.721 39.9238 15.3081 40.002 14.8952C41.2031 8.24373 40.4121 2.89803 37.7461 1.13473C35.1777 -0.550447 30.9883 1.20169 26.75 5.42022C26.3301 5.83314 25.9199 6.26839 25.5293 6.70363C25.2656 6.41347 24.9922 6.1233 24.7188 5.8443C20.2754 1.33561 15.8223 -0.561607 13.1563 1.21285C10.5977 2.90919 9.83594 7.9424 10.9102 14.2367C11.0176 14.8617 11.1348 15.4755 11.2715 16.1004C10.6465 16.3013 10.0312 16.5245 9.45508 16.7589C4.24023 18.8235 0.5 22.0823 0.5 25.4526C0.5 28.9346 4.48438 32.4277 9.9043 34.5481C10.3438 34.7155 10.7832 34.8829 11.2324 35.028C11.0859 35.6976 10.959 36.3561 10.8418 37.0368C9.81641 43.2307 10.6172 48.1411 13.1758 49.8263C15.8125 51.5673 20.2461 49.7817 24.5625 45.4627C24.9043 45.1168 25.2461 44.7596 25.5879 44.3802C26.0176 44.8601 26.4668 45.3176 26.916 45.764C31.0957 49.871 35.2266 51.5338 37.7754 49.8486C40.4121 48.1077 41.2715 42.8289 40.1582 36.4007C40.0703 35.9097 39.9727 35.4075 39.8652 34.8941C40.1777 34.7936 40.4805 34.682 40.7832 34.5704C46.418 32.4389 50.5 28.9904 50.5 25.4526C50.5 22.0711 46.6523 18.79 41.3398 16.7031ZM28.127 7.22816C31.7598 3.61228 35.1484 2.19494 36.6914 3.21051C38.3418 4.29304 38.9766 8.66781 37.9414 14.4153C37.873 14.7947 37.8047 15.163 37.7168 15.5313C35.5488 14.9733 33.3516 14.5715 31.1445 14.3483C29.875 12.2725 28.4883 10.286 26.9844 8.42229C27.3652 8.00936 27.7363 7.61876 28.127 7.22816ZM16.8281 31.2447C17.3262 32.2157 17.834 33.1866 18.3711 34.1352C16.8477 33.9455 15.334 33.6665 13.8398 33.2982C14.2695 31.6911 14.8066 30.0283 15.4316 28.3319C15.8809 29.314 16.3398 30.285 16.8281 31.2447ZM13.8691 17.8191C15.2754 17.462 16.7695 17.1718 18.3223 16.9486C17.8047 17.8749 17.2969 18.8235 16.8184 19.7833C16.3398 20.7319 15.8711 21.7028 15.4316 22.6849C14.8164 21.0221 14.2988 19.3927 13.8691 17.8191ZM16.5449 25.5084C17.1895 23.9683 17.8926 22.4617 18.6348 20.9774C19.377 19.4931 20.1777 18.0535 21.0176 16.6361C22.4824 16.5134 23.9766 16.4464 25.5 16.4464C27.0234 16.4464 28.5273 16.5134 29.9824 16.6361C30.8125 18.0423 31.6035 19.482 32.3555 20.9551C33.1074 22.4282 33.8105 23.9349 34.4746 25.4638C33.8203 27.0039 33.1172 28.5217 32.3652 30.0171C31.623 31.5014 30.832 32.9411 30.002 34.3696C28.5469 34.4923 27.0332 34.5481 25.5 34.5481C23.9668 34.5481 22.4824 34.4923 21.0469 34.3919C20.1973 32.9745 19.3965 31.5237 18.6445 30.0394C17.8926 28.5551 17.1992 27.0485 16.5449 25.5084ZM34.1816 31.2224C34.6797 30.2403 35.1484 29.2471 35.6074 28.2427C36.2324 29.8609 36.7793 31.5014 37.2578 33.1866C35.7441 33.5772 34.2109 33.8785 32.668 34.0794C33.1953 33.1419 33.6934 32.1822 34.1816 31.2224ZM35.5879 22.6849C35.1289 21.7028 34.6602 20.7207 34.1719 19.761C33.6934 18.8124 33.1953 17.8749 32.6777 16.9486C34.25 17.1718 35.7539 17.4731 37.1602 17.8414C36.7109 19.4931 36.1836 21.1002 35.5879 22.6849ZM25.5195 10.1298C26.5449 11.402 27.5117 12.7413 28.4102 14.1251C26.4766 14.0247 24.5332 14.0247 22.5996 14.1251C23.5566 12.6855 24.543 11.3462 25.5195 10.1298ZM14.1914 3.28863C15.832 2.19494 19.4746 3.75736 23.3125 7.64108C23.5566 7.8866 23.8008 8.15445 24.0547 8.42229C22.541 10.286 21.1445 12.2725 19.8652 14.3483C17.6582 14.5715 15.4707 14.9621 13.3027 15.509C13.1758 14.9398 13.0684 14.3595 12.9609 13.7791C12.043 8.37765 12.6484 4.3042 14.1914 3.28863ZM11.7988 32.7067C11.3887 32.5728 10.9883 32.4277 10.5879 32.2715C8.50781 31.5237 6.14453 30.3408 4.43555 28.7895C3.44922 28.0083 2.78516 26.803 2.59961 25.4526C2.59961 23.4103 5.68555 20.7989 10.1387 19.0244C10.6953 18.8012 11.2617 18.6003 11.8281 18.4106C12.4922 20.8323 13.293 23.2094 14.2207 25.5084C13.2832 27.8409 12.4727 30.2515 11.7988 32.7067ZM23.1855 43.6436C21.5742 45.3288 19.709 46.668 17.6777 47.5831C16.5938 48.1746 15.3438 48.2304 14.2305 47.7282C12.6777 46.7015 12.0332 42.762 12.9121 37.4609C13.0195 36.8359 13.1367 36.211 13.2734 35.5972C15.4609 36.1329 17.668 36.5011 19.9043 36.6909C21.1934 38.7778 22.6094 40.7755 24.123 42.6504C23.8105 42.9963 23.498 43.3311 23.1855 43.6436ZM25.5781 40.9317C24.582 39.7041 23.5859 38.3426 22.6191 36.8806C23.5566 36.9252 24.5234 36.9476 25.5 36.9476C26.5059 36.9476 27.4922 36.9252 28.4688 36.8694C27.5703 38.2868 26.6035 39.6371 25.5781 40.9317ZM38.3418 44.2797C38.2539 45.6413 37.668 46.9135 36.7305 47.7729C35.1777 48.7996 31.8672 47.4604 28.293 43.9561C27.8828 43.5543 27.4727 43.1191 27.0527 42.6727C28.5469 40.7866 29.9238 38.789 31.1738 36.6909C33.4102 36.4788 35.6367 36.0882 37.834 35.5191C37.9316 35.9766 38.0195 36.4342 38.0977 36.8806C38.5762 39.2912 38.6543 41.8022 38.3418 44.2797ZM40.1191 32.2826C39.8457 32.3831 39.5723 32.4835 39.2891 32.5728C38.6055 30.1399 37.7656 27.7628 36.7988 25.4526C37.7363 23.176 38.5273 20.8323 39.1914 18.4329C39.6992 18.6003 40.1875 18.7789 40.6562 18.9574C45.207 20.7431 48.4004 23.3992 48.4004 25.4303C48.4004 27.6177 44.9922 30.4412 40.1191 32.2826ZM25.5 30.6086C27.9707 30.6086 29.9727 28.3208 29.9727 25.4973C29.9727 22.6738 27.9707 20.3859 25.5 20.3859C23.0293 20.3859 21.0273 22.6738 21.0273 25.4973C21.0273 28.3208 23.0293 30.6086 25.5 30.6086Z" fill="#F89D24"/>
</svg>
